HIERARCHY
ROOT Hips
{
	OFFSET 0.00000 0.00000 0.00000
	CHANNELS 6 Xposition Yposition Zposition Yrotation Zrotation Xrotation 
	JOINT Lumbar
	{
		OFFSET 0 0 0
		CHANNELS 3 Zrotation Xrotation Yrotation
		JOINT Neck
		{
			OFFSET 0.00 0.2701 0.00
			CHANNELS 3 Zrotation Xrotation Yrotation
			End Site
			{
				OFFSET 0.00 0.1379 0.00
			}
		}
		JOINT RightShoulder
		{
			OFFSET 0.0119 0.2289 0.1181
			CHANNELS 3 Zrotation Xrotation Yrotation
			JOINT RightElbow
			{
				OFFSET 0.00 -0.1475 0.00
				CHANNELS 2 Zrotation Yrotation
				JOINT RightWrist
				{
					OFFSET 0.00 -0.1605 0.00
					CHANNELS 2 Zrotation Xrotation
					End Site
					{
						OFFSET 0.0040 -0.1068 0.0006
					}
				}
			}
		}
		JOINT LeftShoulder
		{
			OFFSET 0.0119 0.2289 -0.1181
			CHANNELS 3 Zrotation Xrotation Yrotation
			JOINT LeftElbow
			{
				OFFSET 0.00 -0.1475 0.00
				CHANNELS 2 Zrotation Yrotation
				JOINT LeftWrist
				{
					OFFSET 0.00 -0.1605 0.00
					CHANNELS 2 Zrotation Xrotation
					End Site
					{
						OFFSET 0.0040 -0.1068 -0.0006
					}
				}
			}
		}
	}
	JOINT RightHip
	{
		OFFSET 0.0316 -0.0424 0.0458
		CHANNELS 3 Zrotation Xrotation Yrotation
		JOINT RightKnee
		{
			OFFSET 0.00 -0.2438 0.00
			CHANNELS 1 Zrotation
			JOINT RightAnkle
			{
				OFFSET 0.00 -0.2449 0.00
				CHANNELS 3 Zrotation Xrotation Yrotation
				End Site
				{
					OFFSET 0.1237 -0.0542 0.0051
				}
			}
		}
	}
	JOINT LeftHip
	{
		OFFSET 0.0316 -0.0424 -0.0458
		CHANNELS 3 Zrotation Xrotation Yrotation
		JOINT LeftKnee
		{
			OFFSET 0.00 -0.2438 0.00
			CHANNELS 1 Zrotation
			JOINT LeftAnkle
			{
				OFFSET 0.00 -0.2449 0.00
				CHANNELS 3 Zrotation Xrotation Yrotation
				End Site
				{
					OFFSET 0.1237 -0.0542 -0.0051
				}
			}
		}
	}
}
MOTION
Frames: 27
Frame Time: 0.02
0.07657 0.29568 0.23331 174.38494 0 -13.84479 -19.72025 7.96102 -4.79253 -6.35912 4.25055 0.67478 3.96651 -18.1738 -2.78563 21.62148 110.17378 -31.52386 -7.30074 2.54453 23.19267 -22.34013 87.81784 -105.81148 -47.73292 5.86294 44.37745 -0.55155 16.35501 -117.87392 21.10009 -27.36122 -9.67882 23.40572 17.70494 3.53137 -117.83528 -35.73492 5.36689 -12.77048
0.08071 0.29278 0.22797 174.57814 0 -13.01156 -20.2153 7.69043 -4.26249 -5.20308 3.63083 0.21843 3.52685 -17.94818 -3.52421 20.60995 110.01118 -29.89096 -7.44407 2.69347 23.9337 -22.96148 88.85517 -106.04593 -47.77172 5.88412 45.20529 -0.49658 17.04236 -118.85481 21.10163 -27.29352 -9.58036 24.27128 17.8011 2.96448 -118.67556 -36.54887 5.71137 -12.77291
0.08501 0.28956 0.22225 174.75304 0 -12.11758 -20.75241 7.38933 -3.58165 -3.88979 3.00524 -0.3284 2.81837 -17.77481 -4.18202 20.00329 109.81969 -28.40704 -7.59304 2.67396 24.56172 -23.51453 89.94864 -106.17408 -47.91021 5.89247 45.97087 -0.47861 17.68129 -120.23043 21.10482 -27.33613 -9.62788 25.16351 17.9071 2.37269 -119.54178 -37.498 6.11875 -12.77844
0.08924 0.28647 0.21669 174.93169 0 -11.26525 -21.27768 7.11899 -2.98851 -2.63774 2.3794 -0.80635 2.22998 -17.57707 -4.88043 19.2127 109.64723 -26.87049 -7.74067 2.71126 25.22927 -24.09462 91.00424 -106.33832 -48.00895 5.90535 46.77718 -0.44219 18.31868 -121.42073 21.10726 -27.31293 -9.59395 26.04754 18.02408 1.7845 -120.40923 -38.33336 6.47426 -12.78408
0.09346 0.28344 0.21115 175.13347 0 -10.34854 -21.77089 6.77419 -2.31606 -1.4276 1.76336 -1.40146 1.65288 -17.38011 -5.5576 18.41846 109.45892 -25.27596 -7.88479 2.83644 25.9476 -24.69131 92.11859 -106.54929 -48.08258 5.92332 47.5262 -0.4121 19.05918 -122.6369 21.1096 -27.34996 -9.61688 26.91726 18.0711 1.22549 -121.22484 -39.3887 6.92724 -12.78357
0.09773 0.28021 0.2055 175.27948 0 -9.5523 -22.34076 6.57791 -1.77137 -0.09504 1.12603 -1.77464 0.98982 -17.19498 -6.26054 17.73058 109.29451 -23.83783 -8.03673 2.73696 26.53366 -25.23763 93.12097 -106.63895 -48.23263 5.92776 48.38173 -0.37773 19.57197 -123.89297 21.11257 -27.29127 -9.55995 27.82057 18.26823 0.60284 -122.1513 -40.02078 7.19378 -12.79639
0.10214 0.27653 0.19963 175.29736 0 -9.11779 -23.11944 6.80606 -1.62898 1.5574 0.43649 -1.50485 0.12711 -17.02576 -7.06826 17.22152 109.18807 -22.76547 -8.21143 2.05708 26.77468 -25.6576 93.80562 -106.42711 -48.5727 5.89852 49.54484 -0.32337 19.46717 -125.15844 21.11712 -26.927 -9.23236 28.83022 18.87495 -0.21002 -123.40313 -39.42051 6.91386 -12.84667
0.10659 0.27265 0.19367 175.25521 0 -8.80478 -23.97242 7.18408 -1.61802 3.32297 -0.27502 -1.00981 -0.80735 -16.86772 -7.90284 16.80883 109.10793 -21.84979 -8.39316 1.15691 26.8881 -26.02995 94.374 -106.09642 -48.98639 5.85609 50.81809 -0.26307 19.1341 -126.45105 21.12224 -26.46666 -8.82346 29.86843 19.6337 -1.08142 -124.76062 -38.39504 6.44709 -12.90994
0.111 0.26886 0.18776 175.22663 0 -8.42788 -24.78725 7.48943 -1.53848 5.0248 -0.97916 -0.6233 -1.69262 -16.7072 -8.71714 16.36256 109.02428 -20.88047 -8.56977 0.35715 27.06407 -26.42669 94.99109 -105.81588 -49.36374 5.81941 52.043 -0.20543 18.90591 -127.73381 21.12698 -26.05933 -8.46125 30.88099 20.3249 -1.91308 -126.05297 -37.58399 6.07643 -12.9664
0.11549 0.26508 0.18184 175.25653 0 -8.08578 -25.62336 7.81255 -1.4908 6.78818 -1.67164 -0.2147 -2.66136 -16.53694 -9.56325 15.88694 108.90455 -19.84195 -8.75459 -0.45146 27.21511 -26.80947 95.62687 -105.54721 -49.75454 5.78328 53.25924 -0.15049 18.67283 -129.01988 21.13228 -25.61314 -8.06038 31.95012 21.00912 -2.80357 -127.41897 -36.6883 5.66074 -13.02697
0.11982 0.26122 0.17591 175.14911 0 -7.70037 -26.43055 8.1351 -1.41028 8.44314 -2.39462 0.20354 -3.46458 -16.38966 -10.34975 15.49048 108.86608 -18.98332 -8.92407 -1.28949 27.39146 -27.21086 96.19638 -105.22778 -50.13626 5.74307 54.51946 -0.08645 18.3944 -130.30037 21.13653 -25.22757 -7.72204 32.90518 21.74479 -3.58201 -128.65576 -35.86612 5.29362 -13.08182
0.12372 0.25718 0.16998 174.69027 0 -7.16991 -27.1537 8.41598 -1.20448 9.81263 -3.18789 0.58524 -3.83678 -16.29667 -10.97407 15.28362 109.05002 -18.57825 -9.04783 -2.17389 27.65071 -27.67484 96.60222 -104.79168 -50.45032 5.69467 55.88321 -0.01266 18.06333 -131.55656 21.13788 -24.99859 -7.54816 33.56068 22.57652 -4.06307 -129.51364 -35.35196 5.1066 -13.11927
0.12743 0.25306 0.16405 174.09338 0 -6.59084 -27.84213 8.69198 -0.96223 11.06011 -4.01324 0.97081 -4.03056 -16.22722 -11.53722 15.15201 109.31444 -18.34915 -9.15609 -3.07584 27.94406 -28.1588 96.94708 -104.31051 -50.75628 5.64277 57.28567 0.07254 17.69163 -132.80447 21.13818 -24.83944 -7.44437 34.09591 23.4555 -4.42459 -130.23642 -34.92651 4.9748 -13.15019
0.1312 0.24897 0.15813 173.55069 0 -6.03199 -28.53733 8.97249 -0.73909 12.33591 -4.82876 1.36037 -4.27596 -16.15115 -12.12165 14.98756 109.53876 -18.04166 -9.27257 -3.95652 28.23396 -28.6353 97.32511 -103.85378 -51.08219 5.59258 58.66533 0.16221 17.32776 -134.0559 21.13884 -24.6707 -7.32639 34.67159 24.31976 -4.82302 -131.01924 -34.45796 4.81689 -13.18306
0.13508 0.24491 0.1522 173.04024 0 -5.48673 -29.2741 9.2482 -0.50996 13.73206 -5.62265 1.73354 -4.64799 -16.05887 -12.73043 14.82131 109.77747 -17.73225 -9.38469 -4.9014 28.46739 -29.10665 97.67474 -103.3748 -51.34413 5.54124 60.07237 0.21258 17.0007 -135.31031 21.13985 -24.4066 -7.13179 35.30897 25.16455 -5.2958 -131.81399 -33.98268 4.65572 -13.22071
0.13868 0.24077 0.14628 172.43277 0 -4.89821 -29.91393 9.53122 -0.28262 14.84484 -6.47184 2.13872 -4.7135 -16.00506 -13.27871 14.67497 110.00676 -17.46757 -9.50169 -5.71348 28.82955 -29.58986 98.0722 -102.93468 -51.73383 5.49186 61.42813 0.34587 16.59042 -136.5552 21.14005 -24.35718 -7.11359 35.78801 26.05447 -5.58611 -132.54732 -33.55269 4.5182 -13.24663
0.1416 0.23637 0.14036 171.57339 0 -4.2173 -30.30411 9.83104 -0.07309 15.22499 -7.43983 2.63251 -3.97173 -16.05784 -13.63146 14.5682 110.17519 -17.27478 -9.63961 -6.15601 29.52894 -30.13801 98.60322 -102.59923 -52.49976 5.44701 62.64896 0.7192 15.95992 -137.78168 21.13745 -24.90163 -7.57536 35.86665 27.0955 -5.3892 -133.16939 -33.18554 4.42144 -13.24232
0.14424 0.23191 0.13446 170.62503 0 -3.4911 -30.596 10.13825 0.13371 15.32117 -8.4664 3.1577 -2.92923 -16.1473 -13.93355 14.47812 110.33427 -17.12221 -9.78223 -6.46286 30.35965 -30.69107 99.18761 -102.30726 -53.38999 5.40464 63.81277 1.17312 15.24802 -138.99668 21.13472 -25.65861 -8.21222 35.78872 28.1717 -5.01561 -133.72872 -32.86896 4.34907 -13.22639
0.14698 0.2275 0.12856 169.72904 0 -2.77512 -30.92595 10.44463 0.34636 15.53198 -9.48399 3.66581 -2.02556 -16.21586 -14.28704 14.37748 110.50714 -16.9554 -9.92027 -6.82977 31.1368 -31.21739 99.7569 -102.00543 -54.20904 5.36243 64.99216 1.58088 14.57514 -140.21408 21.13197 -26.30458 -8.76091 35.7773 29.20703 -4.72992 -134.30008 -32.56004 4.27433 -13.21518
0.14982 0.22297 0.12262 168.77674 0 -2.10131 -31.28165 10.74124 0.54511 15.79407 -10.4311 4.18338 -1.10193 -16.30311 -14.51811 14.29069 110.64166 -16.77578 -10.06816 -7.20427 31.88738 -31.84646 100.28516 -101.66163 -55.09053 5.3148 66.21863 2.02877 13.89326 -141.44683 21.12749 -27.00642 -9.34237 35.78068 30.35227 -4.40483 -134.93777 -32.13133 4.16664 -13.20558
0.1524 0.21869 0.11676 167.92374 0 -1.32946 -31.56203 11.05878 0.76622 15.8903 -11.53489 4.692 -0.15659 -16.35984 -14.99356 14.1798 110.85392 -16.63257 -10.19677 -7.53036 32.72634 -32.26419 100.91257 -101.41433 -55.87079 5.27893 67.33044 2.41272 13.20996 -142.64033 21.12914 -27.65073 -9.9037 35.71837 31.2724 -4.12536 -135.42239 -31.95455 4.13012 -13.19063
0.15431 0.21507 0.1111 167.35707 0 -0.29831 -31.64788 11.4418 1.09739 15.53965 -13.08669 5.13775 0.82306 -16.32316 -16.15175 13.98224 111.27252 -16.55777 -10.27158 -7.75285 33.75602 -32.08493 101.79994 -101.44073 -56.34829 5.27655 68.16117 2.59484 12.55548 -143.76802 21.12514 -28.00137 -10.2996 35.50784 31.59501 -3.98312 -135.51425 -32.53445 4.3065 -13.1575
0.15598 0.21172 0.10551 166.89649 0 0.8298 -31.66339 11.8434 1.44255 15.04324 -14.78757 5.57816 1.80349 -16.25452 -17.5592 13.76219 111.77087 -16.52145 -10.32671 -7.92918 34.8726 -31.69721 102.78594 -101.56072 -56.71872 5.28575 68.87448 2.71085 11.90048 -144.84919 21.13095 -28.29955 -10.67934 35.23879 31.68353 -3.90039 -135.45163 -33.35218 4.54943 -13.1204
0.15776 0.20829 0.0999 166.3936 0 1.9135 -31.71827 12.23084 1.74934 14.65266 -16.40166 6.04212 2.7523 -16.20032 -18.8552 13.56291 112.23975 -16.48124 -10.39066 -8.13186 35.96478 -31.41003 103.72736 -101.62505 -57.133 5.28848 69.62686 2.86068 11.23717 -145.92566 21.14788 -28.6787 -11.11265 34.99969 31.85749 -3.81082 -135.45152 -34.01229 4.74678 -13.08942
0.15951 0.20466 0.09427 165.86018 0 3.0002 -31.73869 12.64455 2.18938 14.08559 -18.10177 6.42174 3.8472 -16.14728 -20.13985 13.32082 112.68133 -16.38526 -10.45561 -8.31778 37.0032 -31.08943 104.66867 -101.74192 -57.5703 5.29598 70.43658 2.99726 10.60595 -147.11098 21.1015 -28.83375 -11.36527 34.73829 32.12098 -3.62593 -135.48382 -34.88272 5.00901 -13.04047
0.16128 0.20151 0.08868 165.41976 0 4.10316 -31.81518 13.00551 2.3575 13.85444 -19.65288 6.97066 4.6297 -16.08435 -21.51031 13.16097 113.19685 -16.4139 -10.51334 -8.51606 38.16581 -30.80029 105.63405 -101.7765 -57.93461 5.29677 71.10105 3.14487 9.91026 -148.05848 21.18623 -29.42824 -11.97765 34.51475 32.14215 -3.66076 -135.40999 -35.37169 5.15253 -13.02734
0.16313 0.19954 0.08319 165.18514 0 5.22667 -32.06726 13.23598 1.7513 14.59607 -20.79397 8.02915 4.5842 -15.99479 -23.03814 13.24435 113.91136 -16.77577 -10.55945 -8.87221 39.70522 -30.55245 106.63231 -101.51456 -58.10778 5.27213 71.3823 3.33747 9.02596 -148.36223 21.65717 -31.35238 -13.67686 34.38306 31.54969 -4.24792 -135.10255 -34.73992 4.94339 -13.12071
